<svg width="64" height="40" viewBox="0 0 64 40" fill="none" xmlns="http://www.w3.org/2000/svg">
<path d="M12.6136 34H4.09091L18.5227 4.90909H29.3182L34.0909 34H25.5682L22.7273 12.9205H22.5L12.6136 34ZM12.9545 22.5227H28.9773L27.9545 28.4318H11.9318L12.9545 22.5227ZM40.8291 34.3409C39.4465 34.3409 38.2581 34.1136 37.2638 33.6591C36.2789 33.1951 35.5592 32.4943 35.1047 31.5568C34.6596 30.6098 34.5602 29.4167 34.8064 27.9773C35.0053 26.7841 35.3793 25.7661 35.9286 24.9233C36.4778 24.0805 37.1596 23.3892 37.974 22.8494C38.7884 22.3097 39.7022 21.8977 40.7155 21.6136C41.7382 21.3201 42.8178 21.1307 43.9541 21.0455C45.1852 20.9508 46.1842 20.8324 46.9513 20.6903C47.7183 20.5483 48.2912 20.3542 48.67 20.108C49.0488 19.8617 49.2761 19.5303 49.3518 19.1136V19.0568C49.4371 18.4886 49.2856 18.053 48.8973 17.75C48.5185 17.447 47.9882 17.2955 47.3064 17.2955C46.5678 17.2955 45.9286 17.4564 45.3888 17.7784C44.8585 18.1004 44.4939 18.6023 44.295 19.2841H37.0791C37.3821 17.9583 38.0024 16.7367 38.9399 15.6193C39.8869 14.4924 41.1416 13.5928 42.7041 12.9205C44.2761 12.2386 46.1511 11.8977 48.3291 11.8977C49.8821 11.8977 51.2458 12.0824 52.42 12.4517C53.5943 12.8116 54.5649 13.3182 55.332 13.9716C56.1085 14.6155 56.653 15.3731 56.9655 16.2443C57.2875 17.1061 57.3632 18.0436 57.1928 19.0568L54.6928 34H47.3632L47.8746 30.9318H47.7041C47.1359 31.7462 46.4967 32.4044 45.7865 32.9062C45.0857 33.4081 44.3187 33.7727 43.4854 34C42.6615 34.2273 41.7761 34.3409 40.8291 34.3409ZM44.2382 29.3977C44.8253 29.3977 45.403 29.2746 45.9712 29.0284C46.5393 28.7822 47.027 28.4271 47.4342 27.9631C47.8414 27.4991 48.1018 26.9356 48.2155 26.2727L48.4996 24.4545C48.2912 24.5398 48.0592 24.6203 47.8036 24.696C47.5573 24.7623 47.2969 24.8286 47.0223 24.8949C46.7571 24.9612 46.4731 25.0227 46.17 25.0795C45.8765 25.1364 45.5734 25.1932 45.2609 25.25C44.6359 25.3447 44.1104 25.5009 43.6842 25.7188C43.2581 25.9271 42.9267 26.1875 42.6899 26.5C42.4532 26.803 42.3064 27.1439 42.2496 27.5227C42.1643 28.1193 42.3017 28.5833 42.6615 28.9148C43.0308 29.2367 43.5564 29.3977 44.2382 29.3977Z" fill="black"/>
<path fill-rule="evenodd" clip-rule="evenodd" d="M2 2V8H4V31.4318H2V37.4318H8V35.4318H55.3575V37.4318H61.3575V31.4318H59.3575V8H61.3575V2H55.3575V4H8V2H2ZM57.3575 31.4318V8H55.3575V6H8V8H6V31.4318H8V33.4318H55.3575V31.4318H57.3575Z" fill="#4597F7"/>
</svg>
